<svg id="Layer_1" enable-background="new 0 0 512.023 512.023" height="512" viewBox="0 0 512.023 512.023" width="512" xmlns="http://www.w3.org/2000/svg"><g><g><path d="m506.019 197.937c-1.629-11.702-9.145-18.744-20.766-19.64-12.615-48.569-41.925-92.895-83.123-125.433-43.162-34.09-96.373-52.864-149.829-52.864-45.01 0-92.156 2.251-132.019 18.579-41.59 17.037-69.589 47.225-85.454 92.163-7.814 1.583-13.837 7.576-16.273 14.201l-17.912 48.736c-.99 2.695-.774 5.687.594 8.212 1.367 2.525 3.755 4.34 6.554 4.983l14.049 3.229c-.034 33.753 6.272 68.302 17.954 97.956 13.222 33.563 32.271 59.078 55.088 73.786 1.091.703 2.309 1.188 3.585 1.425l96.144 17.931 201.75 125.826c.077.048.156.096.234.142 5.584 3.273 11.593 4.855 17.443 4.855 9.785 0 19.127-4.428 25.281-12.773l43.332-58.764c.655-.889 1.278-1.727 1.871-2.524 8.304-11.164 11.975-16.789 11.975-33.119v-10.976c.912-.218 1.8-.553 2.632-1.028 2.627-1.499 4.434-4.105 4.916-7.091 9.881-61.192 10.564-126.137 1.974-187.812zm-19.87 172.333c-16.938-6.636-33.114-12.966-49.293-19.297-12.047-4.714-24.098-9.43-36.459-14.27l90.371-90.371c2.581 41.356 1.047 83.376-4.619 123.938zm-135.753-177.851-60.428 60.428-28.884-29.5c-15.503-15.833-14.256-32.344-8.478-41.672 3.991-6.442 11.538-12.138 22.056-12.138 3.242 0 6.768.541 10.557 1.769h-.001zm22.511 5.774h64.715l-101.636 101.637c-.524-.526-1.047-1.052-1.561-1.578l-30.463-31.113zm93 0h16.77c2.208 0 2.922.429 2.935.429.016.021.382.513.6 2.073.902 6.475 1.687 12.99 2.378 19.531l-108.516 108.515c-1.39-.545-2.77-1.086-4.172-1.635-9.913-3.886-17.98-8.729-24.922-13.985zm-428.58-66.35c.007-.019.841-1.754 2.09-1.423 6 1.607 8.528 2.385 13.117 3.795 3.253 1 7.709 2.369 15.141 4.567 15.603 4.614 22.485 7.242 36.34 26.233l33.152 44.993c4.596 6.237 1.137 10.16-.032 11.214-2.744 2.469-8.053 3.432-13.998-1.985l-36.75-33.5c-1.271-1.158-2.819-1.97-4.496-2.355l-58.559-13.458zm4.56 62.867 32.967 7.576 34.811 31.732c7.22 6.581 14.928 9.23 22.013 9.23 7.375-.001 14.077-2.872 18.845-7.168 10.863-9.787 11.993-25.388 2.747-37.936l-33.124-44.955c-12.805-17.552-22.239-24.624-34.795-29.573 16.06-23.982 43.016-41.071 77.102-48.599 5.393-1.191 8.799-6.528 7.607-11.922-1.19-5.393-6.537-8.797-11.921-7.607-41.424 9.149-73.961 30.976-92.476 61.819-3.062-.924-5.365-1.631-7.252-2.211-1.286-.395-2.417-.742-3.507-1.072 29.234-78.357 95.016-94.024 197.397-94.024 75.359 0 146.032 40.7 186.043 101.604l-42.503.001c-10.405 0-16.127.013-19.37-1.021-2.716-.865-5.469-3.14-11.985-8.66-2.034-1.724-4.356-3.69-7.071-5.934-29.865-24.677-66.372-42.027-105.574-50.179-5.402-1.122-10.701 2.349-11.826 7.756-1.124 5.407 2.349 10.701 7.756 11.826 36.028 7.49 69.538 23.402 96.905 46.015 2.643 2.185 4.902 4.099 6.883 5.776 16.267 13.779 19.247 14.42 42.932 14.42h1.367l54.135-.002c5.961 11.655 10.839 23.892 14.499 36.59h-93.11l-79.998-25.914s0 0-.001 0c-22.304-7.224-44.202.179-55.776 18.864-12.624 20.378-8.231 46.361 11.188 66.196l73.34 74.905c11.379 11.622 26.036 24.688 48.47 33.482 21.257 8.332 41.11 16.102 60.965 23.87 15.42 6.034 30.85 12.072 46.928 18.37v16.875c0 9.363-.883 11.478-6.134 18.632l-80.984-43.012c-15.599-8.284-27.765-11.758-47.354-6.395l-31.607 8.65-92.07-57.421c-1.559-.972-3.354-1.495-5.19-1.514l-131.591-1.339c-8.938-11.409-16.758-25.444-23.167-41.714-10.255-26.03-16.007-56.214-16.514-86.017zm398.666 269.166-107.026-66.749 13.779-3.771c13.284-3.638 20.115-1.912 32.691 4.767l78.352 41.618zm-33.74 26.1-203.222-126.746c-1.059-.66-2.231-1.116-3.459-1.345l-96.009-17.905c-.624-.423-1.236-.883-1.853-1.327l107.878 1.096 218.499 136.272-5.426 7.359c-3.013 4.087-9.425 6.623-16.408 2.596z"/><path d="m277.538 187.252h-.007c-5.522 0-9.997 4.478-9.997 10s4.481 10 10.004 10 10-4.478 10-10-4.478-10-10-10z"/><path d="m96.789 307.002c5.522 0 10-4.478 10-10s-4.478-10-10-10h-.007c-5.522 0-9.997 4.478-9.997 10s4.482 10 10.004 10z"/><path d="m313.04 366.752c5.522 0 10-4.478 10-10s-4.478-10-10-10h-.008c-5.522 0-9.996 4.478-9.996 10s4.482 10 10.004 10z"/><path d="m205.072 70.729c5.522 0 10-4.478 10-10s-4.478-10-10-10h-.008c-5.522 0-9.996 4.478-9.996 10s4.482 10 10.004 10z"/></g></g></svg>